<svg style="position:absolute;width:0;height:0;overflow:hidden"  fill="none" xmlns="http://www.w3.org/2000/svg">
<defs>

<symbol id="icon-facebook" width="24" height="24" viewBox="0 0 24 24">
<path d="M22 12.3038C22 6.74719 17.5229 2.24268 12 2.24268C6.47715 2.24268 2 6.74719 2 12.3038C2 17.3255 5.65684 21.4879 10.4375 22.2427V15.2121H7.89844V12.3038H10.4375V10.0872C10.4375 7.56564 11.9305 6.1728 14.2146 6.1728C15.3088 6.1728 16.4531 6.36931 16.4531 6.36931V8.84529H15.1922C13.95 8.84529 13.5625 9.6209 13.5625 10.4166V12.3038H16.3359L15.8926 15.2121H13.5625V22.2427C18.3432 21.4879 22 17.3257 22 12.3038Z" fill="black"/>
</symbol>

<symbol id="icon-instagram" width="24" height="24" viewBox="0 0 24 24">
<path d="M12.0047 4.86619C14.409 4.86619 14.6936 4.87688 15.639 4.91906C16.5181 4.95787 16.9922 5.10522 17.3089 5.2284C17.7273 5.39037 18.0294 5.58722 18.3421 5.89993C18.6587 6.21658 18.8516 6.51522 19.017 6.93367C19.1401 7.25031 19.2875 7.72781 19.3263 8.60351C19.3685 9.55288 19.3792 9.83747 19.3792 12.2385C19.3792 14.6395 19.3685 14.9274 19.3263 15.8734C19.2875 16.7525 19.1401 17.2266 19.017 17.5433C18.855 17.9617 18.6587 18.2637 18.3454 18.5764C18.0288 18.8931 17.7301 19.086 17.3123 19.2513C16.9956 19.3745 16.5176 19.5219 15.6424 19.5607C14.6931 19.6029 14.4085 19.6135 12.0075 19.6135C9.60648 19.6135 9.31852 19.6029 8.37252 19.5607C7.49345 19.5219 7.01932 19.3745 6.70268 19.2513C6.28423 19.0894 5.98221 18.8931 5.66894 18.5798C5.3523 18.2632 5.15938 17.9645 4.99403 17.5466C4.87086 17.23 4.72351 16.7519 4.6847 15.8768C4.64252 14.9274 4.63183 14.6428 4.63183 12.2418C4.63183 9.84084 4.64252 9.55288 4.6847 8.60688C4.72351 7.72781 4.87086 7.25369 4.99403 6.93704C5.15601 6.5186 5.35286 6.21658 5.66557 5.90331C5.98221 5.58666 6.28086 5.39375 6.6993 5.2284C7.01595 5.10522 7.49345 4.95787 8.36914 4.91906C9.31458 4.87688 9.59973 4.86619 12.0041 4.86619H12.0047ZM12.0047 3.24585C9.56148 3.24585 9.25609 3.25653 8.29603 3.29872C7.33991 3.3409 6.68243 3.49556 6.11326 3.71716C5.51934 3.94888 5.01653 4.25484 4.51766 4.75765C4.01485 5.25708 3.70889 5.75932 3.47717 6.34987C3.25558 6.92298 3.10091 7.57652 3.05873 8.53264C3.01655 9.49608 3.00586 9.80147 3.00586 12.2446C3.00586 14.6878 3.01655 14.9932 3.05873 15.9533C3.10091 16.9094 3.25558 17.5669 3.47717 18.136C3.70945 18.73 4.01485 19.2328 4.51766 19.7316C5.01653 20.2305 5.51934 20.5404 6.10988 20.7688C6.68299 20.9904 7.33653 21.145 8.29265 21.1872C9.25215 21.2294 9.55811 21.2401 12.0013 21.2401C14.4445 21.2401 14.7504 21.2294 15.7099 21.1872C16.666 21.145 17.3235 20.9904 17.8927 20.7688C18.4832 20.5404 18.986 20.2311 19.4849 19.7316C19.9838 19.2322 20.2937 18.73 20.522 18.1394C20.7436 17.5663 20.8983 16.9128 20.9405 15.9567C20.9826 14.9972 20.9933 14.6912 20.9933 12.248C20.9933 9.80485 20.9826 9.49945 20.9405 8.53939C20.8983 7.58327 20.7436 6.92579 20.522 6.35662C20.3004 5.75876 19.9945 5.25652 19.4922 4.75708C18.9934 4.25821 18.4905 3.94832 17.9 3.71997C17.3269 3.49838 16.6733 3.34371 15.7172 3.30153C14.7544 3.25597 14.4484 3.24529 12.0052 3.24529L12.0047 3.24585Z" fill="black"/>
<path d="M12.0044 7.62199C9.45268 7.62199 7.38184 9.69228 7.38184 12.2446C7.38184 14.7968 9.45212 16.8671 12.0044 16.8671C14.5567 16.8671 16.627 14.7968 16.627 12.2446C16.627 9.69284 14.5567 7.62199 12.0044 7.62199ZM12.0044 15.2429C10.3486 15.2429 9.00612 13.9003 9.00612 12.2446C9.00612 10.5888 10.3486 9.24628 12.0044 9.24628C13.6602 9.24628 15.0027 10.5888 15.0027 12.2446C15.0027 13.9003 13.6602 15.2429 12.0044 15.2429Z" fill="black"/>
<path d="M17.8881 7.43932C17.8881 8.03549 17.405 8.51862 16.8088 8.51862C16.2126 8.51862 15.7295 8.03549 15.7295 7.43932C15.7295 6.84315 16.2126 6.36003 16.8088 6.36003C17.405 6.36003 17.8881 6.84315 17.8881 7.43932Z" fill="black"/>
</symbol>

<symbol id="icon-twitter" width="24" height="24" viewBox="0 0 24 24">
<path d="M17.1761 4.24268H19.9362L13.9061 11.0201L21 20.2427H15.4456L11.0951 14.6493L6.11723 20.2427H3.35544L9.80517 12.9935L3 4.24268H8.69545L12.6279 9.3553L17.1761 4.24268ZM16.2073 18.6181H17.7368L7.86441 5.78196H6.2232L16.2073 18.6181Z" fill="black"/>
</symbol>

<symbol id="icon-youtube" width="24" height="24" viewBox="0 0 24 24">
<path d="M21.5933 7.203C21.4794 6.7804 21.2568 6.395 20.9477 6.08517C20.6386 5.77533 20.2537 5.55186 19.8313 5.437C18.2653 5.007 12.0003 5 12.0003 5C12.0003 5 5.73633 4.993 4.16933 5.404C3.74725 5.52415 3.36315 5.75078 3.0539 6.06213C2.74464 6.37349 2.52062 6.75912 2.40333 7.182C1.99033 8.748 1.98633 11.996 1.98633 11.996C1.98633 11.996 1.98233 15.26 2.39233 16.81C2.62233 17.667 3.29733 18.344 4.15533 18.575C5.73733 19.005 11.9853 19.012 11.9853 19.012C11.9853 19.012 18.2503 19.019 19.8163 18.609C20.2388 18.4943 20.6241 18.2714 20.934 17.9622C21.2439 17.653 21.4677 17.2682 21.5833 16.846C21.9973 15.281 22.0003 12.034 22.0003 12.034C22.0003 12.034 22.0203 8.769 21.5933 7.203ZM9.99633 15.005L10.0013 9.005L15.2083 12.01L9.99633 15.005Z" fill="black"/>
</symbol>

<symbol id="icon-chevron-left" width="24" height="24" viewBox="0 0 24 24">
<path d="M14.0371 6.64844C14.1379 6.64844 14.2149 6.67885 14.293 6.75684C14.3711 6.83496 14.4014 6.91179 14.4014 7.0127C14.4014 7.1136 14.3711 7.19043 14.293 7.26855L9.58594 11.9756L9.93945 12.3291L14.293 16.6816C14.3707 16.7594 14.3926 16.8265 14.3896 16.9072C14.3861 17.0012 14.3542 17.0822 14.2686 17.168C14.1905 17.246 14.1135 17.2773 14.0127 17.2773C13.9118 17.2773 13.835 17.2461 13.7568 17.168L8.8125 12.2246C8.78534 12.1974 8.76548 12.1732 8.75098 12.1523L8.72168 12.0996C8.70687 12.0641 8.69829 12.0242 8.69824 11.9756C8.69824 11.9513 8.70011 11.9287 8.7041 11.9082L8.72168 11.8506C8.73339 11.8224 8.75834 11.7798 8.8125 11.7256L13.7822 6.75684C13.8602 6.67903 13.9365 6.64851 14.0371 6.64844Z" fill="black" stroke="black"/>
</symbol>

<svg id="icon-chevron-right" width="24" height="24" viewBox="0 0 24 24">
<path d="M9.38672 6.67285C9.48754 6.67285 9.56452 6.70326 9.64258 6.78125L14.5869 11.7256C14.6408 11.7795 14.666 11.8215 14.6777 11.8496V11.8506C14.6925 11.8861 14.7012 11.9259 14.7012 11.9746C14.7012 12.0233 14.6925 12.0631 14.6777 12.0986V12.0996C14.666 12.1277 14.6408 12.1697 14.5869 12.2236L9.61816 17.1924C9.54039 17.2702 9.47325 17.292 9.39258 17.2891C9.29855 17.2856 9.21769 17.2537 9.13184 17.168C9.05371 17.0898 9.02246 17.013 9.02246 16.9121C9.02246 16.8112 9.05371 16.7344 9.13184 16.6562L13.8135 11.9746L9.10645 7.26758C9.02878 7.18988 9.00684 7.12357 9.00977 7.04297C9.01321 6.9487 9.04578 6.86731 9.13184 6.78125C9.20976 6.70344 9.28613 6.67293 9.38672 6.67285Z" fill="black" stroke="black"/>
</svg>

<svg id="icon-arrow-up" width="24" height="24" viewBox="0 0 24 24">
<path d="M12 8.7041C12.0938 8.7041 12.1699 8.73239 12.25 8.8125L17.1934 13.7568C17.2753 13.8388 17.3018 13.9127 17.3018 14C17.3017 14.0872 17.2753 14.1612 17.1934 14.2432C17.1153 14.3212 17.0383 14.3516 16.9375 14.3516C16.8369 14.3515 16.7605 14.321 16.6826 14.2432L16.6816 14.2422L12.3525 9.93848L11.999 9.58691L7.31836 14.2676C7.24062 14.3453 7.17439 14.3672 7.09375 14.3643C6.99948 14.3608 6.91809 14.3292 6.83203 14.2432C6.75392 14.165 6.72363 14.0882 6.72363 13.9873C6.72364 13.8864 6.75392 13.8096 6.83203 13.7314L11.751 8.8125C11.831 8.7325 11.9063 8.70418 12 8.7041Z" fill="black" stroke="black"/>
</svg>

<symbol id="icon-arrow-down" width="24" height="24" viewBox="0 0 24 24">
<path d="M7.08691 9.02344C7.18774 9.02344 7.26471 9.05385 7.34277 9.13184L11.6455 13.459L11.999 13.8145L16.6816 9.13184C16.7593 9.05424 16.8257 9.03227 16.9062 9.03516C17.0005 9.0386 17.0819 9.07117 17.168 9.15723C17.246 9.23531 17.2764 9.31223 17.2764 9.41309C17.2763 9.51371 17.2458 9.59001 17.168 9.66797L12.249 14.5869C12.1949 14.6411 12.1522 14.667 12.124 14.6787C12.0885 14.6935 12.0486 14.7021 12 14.7021C11.9755 14.7021 11.9532 14.6993 11.9326 14.6953L11.875 14.6787L11.8223 14.6484C11.8015 14.634 11.7779 14.6138 11.751 14.5869L6.80664 9.64355C6.7328 9.56972 6.70662 9.50009 6.70996 9.40527C6.71375 9.29797 6.74977 9.2141 6.83203 9.13184C6.90996 9.05403 6.98632 9.02351 7.08691 9.02344Z" fill="black" stroke="black"/>
</symbol>

<symbol id="icon-travel-bag" width="24" height="24" viewBox="0 0 24 24">
<path d="M4.85059 19.3212V7.55375C4.85059 7.07958 5.01634 6.67616 5.34784 6.3435C5.67934 6.01083 6.08134 5.8445 6.55384 5.8445H9.05934V2.68975C9.05934 2.44625 9.14884 2.2335 9.32784 2.0515C9.50684 1.86966 9.71825 1.77875 9.96209 1.77875H14.0381C14.2819 1.77875 14.4933 1.86966 14.6723 2.0515C14.8513 2.2335 14.9408 2.44625 14.9408 2.68975V5.8445H17.4463C17.9205 5.8445 18.3239 6.01083 18.6566 6.3435C18.9893 6.67616 19.1556 7.07958 19.1556 7.55375V19.3212C19.1556 19.7937 18.9893 20.1957 18.6566 20.5272C18.3239 20.8587 17.9205 21.0245 17.4463 21.0245V21.4352C17.4463 21.6579 17.3718 21.8446 17.2228 21.9952C17.074 22.1459 16.8865 22.2212 16.6603 22.2212C16.4318 22.2212 16.2358 22.1514 16.0721 22.0117C15.9086 21.8721 15.8428 21.6799 15.8746 21.4352V21.0245H8.12559V21.4352C8.12559 21.6579 8.05117 21.8446 7.90234 21.9952C7.75334 22.1459 7.56584 22.2212 7.33984 22.2212C7.11117 22.2212 6.915 22.1514 6.75134 22.0117C6.58784 21.8721 6.522 21.6799 6.55384 21.4352V21.0245C6.08134 21.0245 5.67934 20.8587 5.34784 20.5272C5.01634 20.1957 4.85059 19.7937 4.85059 19.3212ZM10.6251 5.8445H13.3751V3.3445H10.6251V5.8445ZM12.0001 11.8332C12.9571 11.8332 13.9019 11.7269 14.8346 11.5142C15.7671 11.3014 16.6377 10.9423 17.4463 10.437V7.55375H6.55384V10.438C7.3625 10.9427 8.23317 11.3014 9.16584 11.5142C10.0983 11.7269 11.0431 11.8332 12.0001 11.8332ZM11.2143 13.8217V13.499C10.3802 13.449 9.57109 13.3145 8.78709 13.0955C8.00292 12.8763 7.2585 12.5541 6.55384 12.1287V19.3212H17.4463V12.1227C16.7417 12.5481 15.9973 12.8703 15.2131 13.0895C14.4291 13.3085 13.62 13.445 12.7858 13.499V13.8217C12.7858 14.0444 12.711 14.2311 12.5613 14.3817C12.4115 14.5322 12.2229 14.6075 11.9956 14.6075C11.7684 14.6075 11.5814 14.5331 11.4346 14.3842C11.2878 14.2352 11.2143 14.0477 11.2143 13.8217Z" fill="black"/>
</symbol>

<symbol id="icon-wand-stars" width="24" height="24" viewBox="0 0 24 24">
<path d="M16.3857 12.7218L14.0509 16.4865C13.9176 16.7072 13.7291 16.7925 13.4854 16.7425C13.2417 16.6925 13.0866 16.5488 13.0199 16.3115L12.2009 13.0043L4.64066 20.5278C4.47066 20.7016 4.27175 20.7885 4.04391 20.7885C3.81608 20.7885 3.61716 20.7016 3.44716 20.5278C3.27733 20.3578 3.19241 20.1588 3.19241 19.931C3.19241 19.7032 3.27733 19.5042 3.44716 19.3342L10.9824 11.805L7.66341 10.9858C7.42608 10.9191 7.28341 10.764 7.23541 10.5205C7.18741 10.2768 7.27175 10.0863 7.48841 9.949L11.2532 7.58925L10.9472 3.1875C10.9305 2.9335 11.0357 2.74817 11.2627 2.6315C11.4897 2.51483 11.6968 2.53983 11.8842 2.7065L15.2619 5.54725L19.3574 3.9055C19.5907 3.82217 19.7927 3.86583 19.9634 4.0365C20.1341 4.20717 20.1777 4.40917 20.0944 4.6425L18.4277 8.738L21.2684 12.1217C21.4351 12.3091 21.4642 12.5163 21.3559 12.7433C21.2476 12.9703 21.0664 13.0754 20.8124 13.0588L16.3857 12.7218ZM3.16141 5.999C3.07008 5.91167 3.02441 5.809 3.02441 5.691C3.02441 5.57317 3.07008 5.46858 3.16141 5.37725L4.38316 4.1555C4.4705 4.06817 4.57308 4.0245 4.69091 4.0245C4.80891 4.0245 4.91358 4.06817 5.00491 4.1555L6.19566 5.35225C6.28683 5.44358 6.33241 5.54717 6.33241 5.663C6.33241 5.779 6.28683 5.88267 6.19566 5.974L4.97391 7.19575C4.88258 7.28692 4.77891 7.3325 4.66291 7.3325C4.54708 7.3325 4.4435 7.28692 4.35216 7.19575L3.16141 5.999ZM13.9869 13.5365L15.5259 11.0583L18.4482 11.2773L16.5462 9.037L17.6472 6.33375L14.9439 7.42875L12.6977 5.52675L12.9227 8.449L10.4384 10.007L13.2857 10.7143L13.9869 13.5365ZM18.0259 20.8385L16.8042 19.6228C16.713 19.5314 16.6716 19.4278 16.6799 19.312C16.6882 19.196 16.738 19.0923 16.8292 19.001L18.0259 17.8103C18.1132 17.7189 18.2159 17.6732 18.3339 17.6732C18.4517 17.6732 18.5563 17.7189 18.6477 17.8103L19.8694 19.026C19.9567 19.1173 19.9962 19.221 19.9879 19.337C19.9796 19.4528 19.9317 19.5564 19.8444 19.6478L18.6477 20.8385C18.5563 20.9298 18.4527 20.9755 18.3369 20.9755C18.2209 20.9755 18.1172 20.9298 18.0259 20.8385Z" fill="black"/>
</symbol>
 
<symbol id="icon-communication" width="24" height="24" viewBox="0 0 24 24">
<path d="M0.862305 15.9532V15.5267C0.862305 14.5947 1.32547 13.9823 2.2518 13.6895C3.17797 13.3965 3.99872 13.25 4.71405 13.25C5.42922 13.25 6.24989 13.3961 7.17605 13.6882C8.10239 13.9806 8.56556 14.5934 8.56556 15.5267V15.9532H0.862305ZM4.7128 11.9107C4.16897 11.9107 3.7038 11.7167 3.3173 11.3287C2.93064 10.9406 2.7373 10.474 2.7373 9.929C2.7373 9.384 2.93097 8.91816 3.3183 8.5315C3.70564 8.145 4.17122 7.95175 4.71505 7.95175C5.25889 7.95175 5.72405 8.14566 6.11055 8.5335C6.49722 8.9215 6.69056 9.38741 6.69056 9.93125C6.69056 10.4751 6.49689 10.941 6.10955 11.329C5.72222 11.7168 5.25664 11.9107 4.7128 11.9107ZM9.93305 13.4097C9.74172 13.4097 9.58372 13.3498 9.45905 13.23C9.33439 13.1102 9.27206 12.9562 9.27206 12.7682C9.27206 12.6744 9.33439 12.512 9.45905 12.281C9.58839 12.0977 9.69055 11.906 9.76556 11.706C9.84056 11.506 9.87805 11.2975 9.87805 11.0805C9.87805 10.8635 9.84056 10.649 9.76556 10.437C9.69055 10.225 9.58772 10.0377 9.45706 9.875C9.40306 9.80216 9.35872 9.72641 9.32405 9.64775C9.28939 9.56908 9.27206 9.48575 9.27206 9.39775C9.27206 9.20725 9.33456 9.05 9.45956 8.926C9.58456 8.80216 9.74239 8.74025 9.93305 8.74025C10.0172 8.74025 10.1037 8.75375 10.1926 8.78075C10.2814 8.80775 10.3508 8.85458 10.4008 8.92125C10.6921 9.22525 10.9055 9.56358 11.0408 9.93625C11.1761 10.3089 11.2438 10.6905 11.2438 11.081C11.2438 11.4683 11.171 11.8572 11.0253 12.2477C10.8796 12.6384 10.6656 12.9734 10.3831 13.2527C10.3164 13.3194 10.2469 13.3622 10.1746 13.3812C10.1024 13.4002 10.0219 13.4097 9.93305 13.4097ZM11.8371 15.3115C11.6424 15.3115 11.4841 15.2487 11.3623 15.123C11.2406 14.9975 11.1798 14.8387 11.1798 14.6465C11.1798 14.5578 11.196 14.4753 11.2283 14.399C11.2606 14.3225 11.3039 14.2484 11.3581 14.1767C11.7677 13.6972 12.0714 13.1961 12.2691 12.6732C12.4667 12.1504 12.5656 11.6192 12.5656 11.0795C12.5656 10.5398 12.4667 10.0039 12.2691 9.47175C12.0714 8.93941 11.7674 8.43991 11.3571 7.97325C11.3036 7.90225 11.2606 7.8295 11.2283 7.755C11.196 7.68033 11.1798 7.5965 11.1798 7.5035C11.1798 7.30983 11.2422 7.15158 11.3671 7.02875C11.4921 6.90591 11.6501 6.8445 11.8413 6.8445C11.9391 6.8445 12.03 6.86725 12.1138 6.91275C12.1976 6.95825 12.2746 7.01883 12.3446 7.0945C12.8659 7.6945 13.2555 8.33125 13.5133 9.00475C13.7713 9.67825 13.9003 10.3693 13.9003 11.078C13.9003 11.7865 13.7713 12.4775 13.5133 13.151C13.2555 13.8247 12.866 14.4615 12.3448 15.0615C12.2793 15.1448 12.2045 15.2073 12.1203 15.249C12.0363 15.2907 11.9419 15.3115 11.8371 15.3115ZM15.4341 15.9532V15.5267C15.4341 14.5934 15.8972 13.9806 16.8236 13.6882C17.7497 13.3961 18.5704 13.25 19.2856 13.25C20.0009 13.25 20.8216 13.3965 21.7478 13.6895C22.6741 13.9823 23.1373 14.5947 23.1373 15.5267V15.9532H15.4341ZM19.2846 11.9107C18.7407 11.9107 18.2756 11.7167 17.8891 11.3287C17.5024 10.9406 17.3091 10.474 17.3091 9.929C17.3091 9.384 17.5027 8.91816 17.8901 8.5315C18.2774 8.145 18.743 7.95175 19.2868 7.95175C19.8306 7.95175 20.2958 8.14566 20.6823 8.5335C21.069 8.9215 21.2623 9.38741 21.2623 9.93125C21.2623 10.4751 21.0686 10.941 20.6813 11.329C20.294 11.7168 19.8284 11.9107 19.2846 11.9107Z" fill="black"/>
</symbol>

<symbol id="icon-bookmark" width="24" height="24" viewBox="0 0 24 24">
<path d="M12.0001 18.1675L7.23159 20.2075C6.66392 20.4522 6.12517 20.4062 5.61534 20.0697C5.1055 19.7332 4.85059 19.2571 4.85059 18.6412V4.42875C4.85059 3.96708 5.0195 3.56683 5.35734 3.228C5.695 2.889 6.09384 2.7195 6.55384 2.7195H17.4463C17.908 2.7195 18.3083 2.889 18.6471 3.228C18.9861 3.56683 19.1556 3.96708 19.1556 4.42875V18.6412C19.1556 19.2571 18.8997 19.7332 18.3878 20.0697C17.876 20.4062 17.3363 20.4522 16.7686 20.2075L12.0001 18.1675ZM12.0001 16.3452L17.4463 18.6412V4.42875H6.55384V18.6412L12.0001 16.3452ZM12.0001 4.42875H6.55384H17.4463H12.0001Z" fill="black"/>
</symbol>

<symbol id="icon-close" width="24" height="24" viewBox="0 0 24 24">
<path d="M17.5996 5.925C17.7639 5.925 17.8659 5.97351 17.9463 6.05391C18.0265 6.13422 18.0751 6.2357 18.0752 6.39961C18.0752 6.56382 18.0266 6.6659 17.9463 6.74629L12.6924 12.0002L13.0459 12.3537L17.9463 17.2531C18.0267 17.3335 18.0752 17.4357 18.0752 17.5998C18.0752 17.7641 18.0267 17.8661 17.9463 17.9465C17.8659 18.0269 17.7639 18.0754 17.5996 18.0754C17.4355 18.0754 17.3333 18.0269 17.2529 17.9465L12.3535 13.0461L12 12.6926L6.74609 17.9465C6.66571 18.0268 6.56362 18.0754 6.39941 18.0754C6.23551 18.0753 6.13402 18.0267 6.05371 17.9465C5.97331 17.8661 5.9248 17.7641 5.9248 17.5998C5.92484 17.4357 5.97334 17.3335 6.05371 17.2531L11.3066 12.0002L10.9531 11.6467L6.05371 6.74629C5.97331 6.66589 5.9248 6.56388 5.9248 6.39961C5.92488 6.23557 5.97337 6.13425 6.05371 6.05391C6.13405 5.97357 6.23537 5.92508 6.39941 5.925C6.56368 5.925 6.66569 5.97351 6.74609 6.05391L11.6465 10.9533L12 11.3068L17.2529 6.05391C17.3333 5.97354 17.4355 5.92504 17.5996 5.925Z" fill="black" stroke="black"/>
</symbol>

<symbol id="icon-logout"  width="24" height="24" viewBox="0 0 24 24">
<path d="M4.55384 21.1495C4.09384 21.1495 3.695 20.9806 3.35734 20.6427C3.0195 20.3051 2.85059 19.9062 2.85059 19.4462V4.55375C2.85059 4.09208 3.0195 3.69183 3.35734 3.353C3.695 3.014 4.09384 2.8445 4.55384 2.8445H11.1593C11.3997 2.8445 11.6017 2.92791 11.7653 3.09475C11.929 3.26175 12.0108 3.46583 12.0108 3.707C12.0108 3.94833 11.929 4.14983 11.7653 4.3115C11.6017 4.473 11.3997 4.55375 11.1593 4.55375H4.55384V19.4462H11.1593C11.3997 19.4462 11.6017 19.5285 11.7653 19.693C11.929 19.8575 12.0108 20.0606 12.0108 20.3022C12.0108 20.5439 11.929 20.7455 11.7653 20.907C11.6017 21.0687 11.3997 21.1495 11.1593 21.1495H4.55384ZM17.8918 12.8517H9.81584C9.5755 12.8517 9.3735 12.7694 9.20984 12.6047C9.04617 12.4402 8.96434 12.2372 8.96434 11.9955C8.96434 11.754 9.04617 11.5524 9.20984 11.3907C9.3735 11.2291 9.5755 11.1482 9.81584 11.1482H17.8418L15.9186 9.225C15.7486 9.05416 15.6678 8.85408 15.6761 8.62475C15.6844 8.39525 15.7736 8.1965 15.9436 8.0285C16.1134 7.85666 16.3158 7.77175 16.5508 7.77375C16.7857 7.77575 16.9894 7.86166 17.1621 8.0315L20.5588 11.4282C20.7247 11.5996 20.8076 11.7988 20.8076 12.026C20.8076 12.2532 20.7247 12.4517 20.5588 12.6217L17.1871 15.9935C17.0204 16.1633 16.8223 16.2451 16.5928 16.2387C16.3632 16.2324 16.1602 16.1443 15.9838 15.9745C15.8203 15.8045 15.7375 15.6017 15.7353 15.366C15.7332 15.1302 15.8193 14.9268 15.9936 14.756L17.8918 12.8517Z" fill="currentColor"/>
</symbol>

<symbol id="icon-menu" width="24" height="24" viewBox="0 0 24 24">
<path d="M3.70234 18.2212C3.46184 18.2212 3.25975 18.139 3.09609 17.9745C2.93242 17.81 2.85059 17.6049 2.85059 17.3592C2.85059 17.1176 2.93242 16.9159 3.09609 16.7542C3.25975 16.5927 3.46184 16.512 3.70234 16.512H20.2978C20.5383 16.512 20.7414 16.5942 20.9071 16.7587C21.0728 16.9232 21.1556 17.1263 21.1556 17.368C21.1556 17.6137 21.0728 17.8172 20.9071 17.9787C20.7414 18.1404 20.5383 18.2212 20.2978 18.2212H3.70234ZM3.70234 12.8517C3.46184 12.8517 3.25975 12.7694 3.09609 12.6047C2.93242 12.4402 2.85059 12.2372 2.85059 11.9955C2.85059 11.754 2.93242 11.5524 3.09609 11.3907C3.25975 11.2291 3.46184 11.1482 3.70234 11.1482H20.2978C20.5383 11.1482 20.7414 11.2306 20.9071 11.3952C21.0728 11.5597 21.1556 11.7628 21.1556 12.0045C21.1556 12.246 21.0728 12.4476 20.9071 12.6092C20.7414 12.7709 20.5383 12.8517 20.2978 12.8517H3.70234ZM3.70234 7.488C3.46184 7.488 3.25975 7.40575 3.09609 7.24125C2.93242 7.07675 2.85059 6.87166 2.85059 6.626C2.85059 6.38433 2.93242 6.18275 3.09609 6.02125C3.25975 5.85958 3.46184 5.77875 3.70234 5.77875H20.2978C20.5383 5.77875 20.7414 5.861 20.9071 6.0255C21.0728 6.19 21.1556 6.39308 21.1556 6.63475C21.1556 6.88041 21.0728 7.08408 20.9071 7.24575C20.7414 7.40725 20.5383 7.488 20.2978 7.488H3.70234Z" fill="white"/>
</symbol>

<symbol id="icon-edit" width="24" height="24" viewBox="0 0 24 24">
<path d="M4.54784 19.4462H5.65384L17.1491 7.976L16.0551 6.876L4.54784 18.3522V19.4462ZM3.70234 21.1495C3.45767 21.1495 3.25459 21.0687 3.09309 20.907C2.93142 20.7455 2.85059 20.5424 2.85059 20.2978V18.3772C2.85059 18.1492 2.89725 17.9265 2.99059 17.709C3.08392 17.4913 3.20717 17.3059 3.36034 17.1527L17.2136 3.3185C17.3509 3.17716 17.5163 3.067 17.7096 2.988C17.9029 2.909 18.1036 2.8695 18.3116 2.8695C18.5028 2.8695 18.694 2.909 18.8853 2.988C19.0767 3.067 19.2533 3.17517 19.4153 3.3125L20.7126 4.59175C20.8666 4.75375 20.9789 4.93141 21.0496 5.12475C21.1203 5.31808 21.1556 5.51233 21.1556 5.7075C21.1556 5.90283 21.1161 6.10033 21.0371 6.3C20.9581 6.49967 20.8499 6.67017 20.7126 6.8115L6.85934 20.6397C6.702 20.7929 6.51559 20.9162 6.30009 21.0095C6.08459 21.1028 5.86284 21.1495 5.63484 21.1495H3.70234ZM16.6051 7.42L16.0551 6.876L17.1491 7.976L16.6051 7.42Z" fill="black"/>
</symbol>

<symbol id="icon-arrow-back" width="24" height="24" viewBox="0 0 24 24">
<path d="M12.0078 4.68652C12.0934 4.68658 12.1668 4.71285 12.249 4.79492C12.3313 4.88086 12.3574 4.95797 12.3574 5.04395C12.3573 5.13078 12.3308 5.20478 12.249 5.28711L5.8877 11.6484H19.2979C19.4194 11.6485 19.4945 11.6838 19.5586 11.7471C19.6207 11.8084 19.6553 11.8801 19.6553 12C19.6553 12.1199 19.6207 12.1916 19.5586 12.2529C19.4945 12.3162 19.4194 12.3515 19.2979 12.3516H5.8877L12.2432 18.707V18.7061C12.3254 18.7885 12.3537 18.8653 12.3545 18.957V18.958C12.355 19.0245 12.3404 19.0829 12.2988 19.1426L12.2471 19.2041C12.1671 19.2851 12.0939 19.3113 12.0049 19.3105C11.9104 19.3096 11.8321 19.2796 11.749 19.1973L4.80078 12.249C4.74762 12.1949 4.72192 12.1527 4.70996 12.124V12.123C4.69485 12.0867 4.68652 12.0466 4.68652 11.999C4.68655 11.9514 4.69516 11.9123 4.70996 11.877V11.876C4.72183 11.8475 4.74729 11.8051 4.80078 11.751L11.751 4.80078C11.8414 4.71356 11.9211 4.68652 12.0078 4.68652Z" fill="black" stroke="black"/>
</symbol>

<symbol id="icon-arrow-forward" width="24" height="24" viewBox="0 0 24 24">
<path d="M11.9951 4.68945C12.0661 4.69012 12.1279 4.70677 12.1895 4.75L12.251 4.80273L19.1992 11.751C19.2524 11.8051 19.2781 11.8473 19.29 11.876V11.877C19.3052 11.9133 19.3135 11.9534 19.3135 12.001C19.3134 12.0486 19.3048 12.0877 19.29 12.123V12.124C19.2782 12.1525 19.2527 12.1948 19.1992 12.249L12.2451 19.1973C12.1538 19.2875 12.0752 19.3135 11.9922 19.3135C11.9115 19.3134 11.8393 19.2889 11.7559 19.2031L11.751 19.1982L11.6992 19.1377C11.6571 19.0781 11.6426 19.02 11.6426 18.9551C11.6426 18.8904 11.6573 18.8328 11.6992 18.7734L11.751 18.7129L18.1123 12.3516H4.70215C4.58005 12.3515 4.50781 12.3164 4.44727 12.2559H4.44629C4.38542 12.195 4.35059 12.122 4.35059 12C4.35059 11.878 4.38542 11.805 4.44629 11.7441H4.44727C4.50782 11.6836 4.58005 11.6485 4.70215 11.6484H18.1123L11.7568 5.29297C11.6955 5.23162 11.6637 5.17322 11.6514 5.1084L11.6455 5.04102C11.6446 4.95107 11.6708 4.87748 11.751 4.79688L11.752 4.7959C11.8321 4.71531 11.9055 4.68868 11.9951 4.68945Z" fill="black" stroke="black"/>
</symbol>

<symbol id="icon-favicon" width="32" height="32" viewBox="0 0 32 32">
<rect width="32" height="32" fill="#E8EEFF"/>
<path d="M5 29C5 28.9809 8.27564 26 16 26C23.503 26 27 28.9809 27 29H5Z" fill="#F6CC90"/>
<path d="M16.3432 26C15.879 26 15.4314 26.0115 15 26.0331C21.3681 26.3585 24.3488 28.9821 24.3488 29H27C27 28.9808 23.6121 26 16.3432 26Z" fill="#F0C17F"/>
<path d="M20.7576 7.17969C19.9743 9.58592 17.8635 10 17.8635 10C17.8635 10 16.4648 8.22654 17.2277 5.88283C18.0314 3.41408 20.1422 3 20.1422 3C20.1422 3 21.5511 4.74223 20.7576 7.17969Z" fill="#C5E866"/>
<path d="M20.0117 3C20.0117 3 19.3689 3.10952 18.6184 3.55126C19.0308 4.25033 19.5419 5.56173 18.9351 7.1797C18.4985 8.34374 17.704 9.04151 17 9.45178C17.2065 9.80221 17.3861 10 17.3861 10C17.3861 10 19.8182 9.58596 20.7207 7.17965C21.635 4.74225 20.0117 3 20.0117 3Z" fill="#B2D94B"/>
<path d="M18.6867 18.9349C17.2211 19.1188 16.1421 18.8545 16.1421 18.8545C16.1421 18.8545 15.209 15.5488 18.1251 12.9661C21.1968 10.2458 24.8517 11.1411 24.8517 11.1411C24.8517 11.1411 25.6534 13.8393 23.5289 16.3467" fill="#9CC042"/>
<path d="M24.856 11.141C24.856 11.141 23.9042 10.901 22.5722 11.0472C22.932 11.0882 23.1417 11.141 23.1417 11.141C23.1417 11.141 23.9203 13.8392 21.857 16.3467L17.1545 18.935C17.1024 18.9417 17.051 18.9476 17 18.9532C17.4437 19.0029 18.1015 19.0341 18.8687 18.935L23.5713 16.3467C25.6346 13.8392 24.856 11.141 24.856 11.141Z" fill="#85AA18"/>
<path d="M12.706 17.1617C15.4356 19.0412 14.9698 21.7352 14.9698 21.7352C14.9698 21.7352 12.0225 22.7206 9.3638 20.8899C6.56324 18.9615 7.02902 16.2676 7.02902 16.2676C7.02902 16.2676 9.94087 15.2578 12.706 17.1617Z" fill="#C5E866"/>
<path d="M9.55252 13.423C12.0603 16.4934 15.6494 15.9654 15.6494 15.9654C15.6494 15.9654 16.9589 12.6462 14.5163 9.65547C11.9434 6.50532 8.35421 7.03327 8.35421 7.03327C8.35421 7.03327 7.01221 10.3127 9.55252 13.423Z" fill="#9CC042"/>
<path d="M22.7592 21.0335C20.3552 22.8156 18.0026 21.5876 18.0026 21.5876C18.0026 21.5876 17.8355 18.7397 20.1771 17.0039C22.6435 15.1756 24.9961 16.4035 24.9961 16.4035C24.9961 16.4035 25.1945 19.2283 22.7592 21.0335Z" fill="#C5E866"/>
<path d="M24.9961 16.4033C24.9961 16.4033 23.7753 15.7635 22.1724 16.0956C22.7572 16.2149 23.1166 16.4033 23.1166 16.4033C23.1166 16.4033 23.314 19.2282 20.8896 21.0335C20.2407 21.5167 19.5957 21.7783 19 21.9034C19.9037 22.0882 21.327 22.1074 22.7692 21.0335C25.1936 19.2282 24.9961 16.4033 24.9961 16.4033Z" fill="#B2D94B"/>
<path d="M26.6978 28.1892C25.9293 27.6583 25.053 27.263 24.1786 26.9332C22.6009 26.3382 19.9753 25.6324 16.339 25.592C16.3981 25.0991 16.538 24.3912 16.8656 23.603C17.1911 22.8199 17.6317 22.1136 18.1837 21.4861C18.443 21.5907 19.1102 21.8199 19.9822 21.8199C20.7897 21.8199 21.7725 21.6231 22.768 20.9486C25.1296 19.3485 24.9685 16.8782 24.9604 16.7738C24.9501 16.6387 24.8673 16.5193 24.7431 16.46C24.7076 16.4431 24.3715 16.2872 23.8404 16.1816C24.2735 15.5154 24.5912 14.7923 24.7869 14.025C24.9085 13.5483 24.1546 13.3637 24.0329 13.8402C23.8264 14.6495 23.4683 15.404 22.9681 16.0853C22.1266 16.0659 21.0699 16.2528 19.9874 16.9862C19.1806 17.5329 18.6768 18.1982 18.3624 18.834C17.6804 18.9191 17.0943 18.8878 16.6972 18.84C17.4868 17.7962 19.5448 15.2665 21.8618 13.9453C22.2951 13.6982 21.9042 13.0397 21.471 13.2869C19.2162 14.5726 17.2536 16.8613 16.3077 18.0764C16.2532 16.8908 16.4629 14.7999 18.2437 13.0491C19.4044 11.9081 20.7858 11.2469 22.3496 11.0841C23.1681 10.9989 23.8266 11.0798 24.1545 11.1377C24.189 11.3365 24.2315 11.6574 24.2387 12.0603C24.2474 12.5469 25.0246 12.541 25.0158 12.0469C25.0017 11.2564 24.8663 10.7425 24.8606 10.721C24.8255 10.5898 24.7219 10.4869 24.5886 10.4506C24.5497 10.4401 23.618 10.1924 22.3033 10.323C21.0933 10.4433 19.3114 10.9206 17.6933 12.5113C17.5583 12.6441 17.432 12.7785 17.313 12.9142C17.5312 12.2556 17.7695 11.5433 18.0131 10.8269C18.717 10.6164 20.4554 9.89519 21.2021 7.7727C22.1393 5.10832 20.5202 3.21256 20.4508 3.13314C20.3606 3.02991 20.2211 2.98161 20.0848 3.00639C19.9806 3.02534 17.5222 3.50065 16.5725 6.20026C15.784 8.44163 16.9077 10.1933 17.251 10.6551C17.0245 11.3222 16.8032 11.9835 16.5988 12.6C16.4414 11.5696 16.0312 10.3607 15.0995 9.19725C13.684 7.42972 11.972 6.74885 10.7849 6.48885C9.49514 6.20636 8.54027 6.34413 8.50022 6.35017C8.36337 6.37068 8.24803 6.46102 8.19735 6.58726C8.18642 6.61448 7.9289 7.26519 7.84102 8.26309C7.79801 8.75256 8.57229 8.81792 8.6154 8.32859C8.66489 7.76645 8.77489 7.3277 8.84847 7.08279C9.18155 7.06344 9.845 7.05968 10.6469 7.23924C12.1802 7.58257 13.4726 8.39959 14.4881 9.66754C15.4501 10.8689 15.927 12.2625 15.9057 13.8098C15.8987 14.3139 15.837 14.7536 15.769 15.0914C14.2316 12.2854 12.0549 10.1296 11.9594 10.0358C11.6056 9.6879 11.0553 10.2255 11.409 10.5735C11.4319 10.5961 13.6758 12.8199 15.1623 15.5959C14.815 15.5881 14.3644 15.5505 13.859 15.441C12.3374 15.1111 11.065 14.3183 10.0771 13.0848C9.38933 12.2259 8.93392 11.2727 8.72354 10.2517C8.62437 9.77016 7.86242 9.92088 7.96169 10.4024C8.19627 11.541 8.7023 12.6018 9.46576 13.5551C10.8479 15.281 12.545 15.9417 13.7251 16.192C14.3132 16.3167 14.9193 16.376 15.5211 16.3567V17.7283V17.7511V22.77C15.4039 22.5222 15.2772 22.2876 15.1438 22.0656C15.1965 21.6148 15.3883 18.9559 12.9019 17.0354C10.2041 14.9518 7.39504 16.0086 7.27674 16.0546C7.14829 16.1046 7.05652 16.2177 7.0359 16.3517C7.01699 16.4746 6.6035 19.385 9.33513 21.4949C10.6039 22.4749 11.9297 22.7307 12.9683 22.7307C13.6422 22.7307 14.1948 22.623 14.5327 22.5355C15.0737 23.4616 15.3936 24.4839 15.4897 25.5948C13.4785 25.6281 11.6022 25.8544 9.90598 26.2698C9.41964 26.3889 9.60804 27.1278 10.0944 27.0088C11.7385 26.6062 13.5622 26.3873 15.5211 26.3561V27.2315C15.5211 27.7228 16.2984 27.7228 16.2984 27.2315V26.3539C20.8818 26.3985 23.811 27.4983 25.2677 28.2383H6.71189C7.08958 28.0414 7.57313 27.8183 8.16937 27.5961C8.63789 27.4215 8.36156 26.7093 7.89309 26.8841C6.92512 27.2449 6.23586 27.611 5.82802 27.8545C5 28.349 5 28.4682 5 28.6191C5 28.8295 5.17395 29 5.38862 29H26.6332C27.2239 29 26.9914 28.392 26.6978 28.1892ZM20.4294 17.6127C22.0692 16.5017 23.6265 16.868 24.1865 17.0602C24.1647 17.6485 23.9475 19.2234 22.326 20.3221C20.8557 21.3184 19.4253 21.0794 18.7737 20.8843C19.5397 20.1818 20.4714 19.5984 21.5649 19.1393C22.0256 18.9458 21.7197 18.2457 21.2589 18.4391C20.2723 18.8533 19.4591 19.3465 18.7878 19.875C18.9898 19.1682 19.4386 18.2841 20.4294 17.6127ZM17.4979 19.65C17.672 19.65 17.8575 19.6438 18.052 19.6299C17.924 20.0651 17.8746 20.4479 17.8569 20.7168C17.1209 21.4823 16.6278 22.2722 16.2984 22.972V19.5533C16.5709 19.5994 16.9863 19.65 17.4979 19.65ZM17.3073 6.44858C17.9581 4.59868 19.4322 3.9856 20.0001 3.81366C20.3375 4.301 21.1106 5.6955 20.4672 7.52453C19.9855 8.89404 19.0186 9.56989 18.3341 9.88965C18.8387 8.42797 19.3374 7.04323 19.6991 6.17386C19.8884 5.71896 19.1687 5.43129 18.9794 5.88623C18.602 6.79323 18.0878 8.22206 17.5718 9.71776C17.2184 9.05502 16.808 7.86806 17.3073 6.44858ZM9.81629 20.8967C8.82521 20.1312 8.18544 19.1569 7.9147 18.0008C7.78195 17.434 7.77479 16.9584 7.78625 16.6929C8.44866 16.511 10.48 16.1347 12.4208 17.6338C13.3844 18.3781 14.0048 19.337 14.2649 20.4839C14.3028 20.6507 14.3297 20.8094 14.3487 20.9575C14.0899 20.6517 13.8265 20.3823 13.5729 20.1492C12.2322 18.9163 10.9014 18.4001 10.8454 18.3787C10.3782 18.2004 10.0962 18.9102 10.5633 19.0885C10.5756 19.0932 11.8089 19.5716 13.0411 20.7047C13.4348 21.0667 13.7815 21.4504 14.082 21.8548C13.221 22.0268 11.4504 22.1588 9.81629 20.8967Z" fill="#060606"/>
</symbol>

<symbol id="icon-company-logo" width="30" height="30" viewBox="0 0 30 30">
<g clip-path="url(#clip0_11249_2321)">
<path d="M2.98926 29.4469C2.98926 29.4276 6.55242 26.403 14.9548 26.403C23.1164 26.403 26.9203 29.4276 26.9203 29.4469H2.98926Z" fill="#F6CC90"/>
<path d="M14.9544 26.403C14.4332 26.403 13.9306 26.4147 13.4463 26.4366C20.5964 26.7668 23.9432 29.4288 23.9432 29.4469H26.92C26.92 29.4275 23.116 26.403 14.9544 26.403Z" fill="#F0C17F"/>
<path d="M20.387 5.34312C19.4134 8.1671 16.79 8.65308 16.79 8.65308C16.79 8.65308 15.0516 6.57172 15.9998 3.8211C16.9986 0.92375 19.6221 0.437775 19.6221 0.437775C19.6221 0.437775 21.3732 2.48248 20.387 5.34312Z" fill="#C5E866"/>
<path d="M19.6237 0.437775C19.6237 0.437775 18.9303 0.566302 18.1208 1.08473C18.5656 1.90516 19.117 3.44422 18.4624 5.34306C17.9914 6.70918 17.1344 7.52809 16.375 8.00957C16.5978 8.42083 16.7915 8.65296 16.7915 8.65296C16.7915 8.65296 19.415 8.16705 20.3885 5.343C21.3747 2.48248 19.6237 0.437775 19.6237 0.437775Z" fill="#B2D94B"/>
<path d="M17.7727 18.6193C16.1733 18.8466 14.9959 18.5199 14.9959 18.5199C14.9959 18.5199 13.9776 14.4338 17.1598 11.2415C20.5117 7.87899 24.5001 8.98565 24.5001 8.98565C24.5001 8.98565 25.375 12.3208 23.0566 15.4201" fill="#9CC042"/>
<path d="M24.4991 8.98565C24.4991 8.98565 23.4296 8.68908 21.933 8.86979C22.3372 8.92045 22.5729 8.98565 22.5729 8.98565C22.5729 8.98565 23.4478 12.3208 21.1294 15.4201L15.8455 18.6193C15.787 18.6276 15.7292 18.6349 15.6719 18.6418C16.1705 18.7033 16.9095 18.7418 17.7716 18.6193L23.0555 15.4201C25.3739 12.3208 24.4991 8.98565 24.4991 8.98565Z" fill="#85AA18"/>
<path d="M11.1812 16.4764C14.02 18.7137 13.5356 21.9207 13.5356 21.9207C13.5356 21.9207 10.4704 23.0938 7.70538 20.9145C4.79285 18.619 5.27725 15.412 5.27725 15.412C5.27725 15.412 8.30552 14.2099 11.1812 16.4764Z" fill="#C5E866"/>
<path d="M7.92573 11.8618C10.7839 15.5035 14.8747 14.8773 14.8747 14.8773C14.8747 14.8773 16.3671 10.9405 13.5831 7.39338C10.6507 3.65715 6.55996 4.28333 6.55996 4.28333C6.55996 4.28333 5.03042 8.17289 7.92573 11.8618Z" fill="#9CC042"/>
<path d="M22.3173 20.2703C19.8647 21.966 17.4646 20.7976 17.4646 20.7976C17.4646 20.7976 17.2941 18.0876 19.683 16.4359C22.1993 14.6962 24.5994 15.8646 24.5994 15.8646C24.5994 15.8646 24.8018 18.5525 22.3173 20.2703Z" fill="#C5E866"/>
<path d="M24.5988 15.8646C24.5988 15.8646 23.3478 15.2558 21.7052 15.5718C22.3044 15.6854 22.6727 15.8646 22.6727 15.8646C22.6727 15.8646 22.875 18.5525 20.3905 20.2703C19.7255 20.73 19.0646 20.9789 18.4541 21.098C19.3802 21.2738 20.8388 21.2921 22.3167 20.2703C24.8012 18.5525 24.5988 15.8646 24.5988 15.8646Z" fill="#B2D94B"/>
<path d="M26.9925 28.9528C26.1267 28.3426 25.1397 27.8882 24.1547 27.5091C22.3774 26.8252 19.4199 26.014 15.3237 25.9675C15.3902 25.401 15.5478 24.5873 15.9169 23.6813C16.2835 22.7812 16.7799 21.9694 17.4017 21.2481C17.6937 21.3684 18.4453 21.6318 19.4276 21.6318C20.3372 21.6318 21.4443 21.4056 22.5657 20.6303C25.2259 18.7911 25.0444 15.9517 25.0354 15.8318C25.0237 15.6765 24.9304 15.5392 24.7905 15.471C24.7505 15.4516 24.372 15.2725 23.7737 15.151C24.2616 14.3853 24.6194 13.5542 24.84 12.6722C24.9768 12.1243 24.1276 11.9121 23.9905 12.4598C23.758 13.39 23.3545 14.2573 22.7911 15.0404C21.8431 15.018 20.6528 15.2328 19.4335 16.0759C18.5246 16.7042 17.9571 17.4689 17.603 18.1997C16.8348 18.2975 16.1745 18.2616 15.7272 18.2066C16.6166 17.0069 18.9349 14.0992 21.5449 12.5806C22.033 12.2966 21.5927 11.5397 21.1047 11.8238C18.5648 13.3016 16.354 15.9323 15.2885 17.329C15.227 15.9662 15.4633 13.5629 17.4693 11.5505C18.7767 10.239 20.3329 9.47905 22.0944 9.29192C23.0164 9.19398 23.7582 9.28696 24.1275 9.3535C24.1664 9.58195 24.2142 9.95084 24.2224 10.4139C24.2322 10.9732 25.1077 10.9665 25.0978 10.3986C25.0819 9.48996 24.9294 8.89921 24.923 8.87452C24.8834 8.72376 24.7667 8.60545 24.6165 8.56377C24.5727 8.55163 23.5232 8.26691 22.0422 8.41703C20.6792 8.55531 18.672 9.10391 16.8492 10.9324C16.6972 11.0849 16.5549 11.2395 16.4208 11.3954C16.6667 10.6384 16.9351 9.81969 17.2094 8.99628C18.0024 8.75434 19.9606 7.92534 20.8017 5.48571C21.8574 2.42323 20.0336 0.244219 19.9554 0.152931C19.8539 0.0342674 19.6968 -0.021241 19.5432 0.00724279C19.4258 0.0290142 16.6565 0.575343 15.5867 3.67833C14.6985 6.2546 15.9643 8.26796 16.3511 8.79882C16.0958 9.56555 15.8466 10.3257 15.6163 11.0343C15.4391 9.84998 14.977 8.4604 13.9274 7.12312C12.333 5.09149 10.4044 4.30888 9.06727 4.01004C7.61436 3.68533 6.53875 3.84369 6.49363 3.85063C6.33948 3.87421 6.20955 3.97805 6.15247 4.12315C6.14015 4.15444 5.85006 4.90237 5.75107 6.04937C5.70262 6.61199 6.57482 6.68711 6.62338 6.12467C6.67913 5.47853 6.80304 4.97423 6.88593 4.69271C7.26112 4.67048 8.00847 4.66616 8.91178 4.87255C10.639 5.26718 12.0948 6.20627 13.2387 7.66367C14.3224 9.04449 14.8596 10.6464 14.8356 12.4248C14.8277 13.0043 14.7583 13.5097 14.6816 13.8979C12.9498 10.6727 10.4978 8.19482 10.3903 8.08696C9.99177 7.68708 9.37178 8.30502 9.7702 8.70496C9.79606 8.73094 12.3237 11.287 13.9982 14.4778C13.6069 14.4689 13.0994 14.4257 12.5301 14.2998C10.8161 13.9205 9.38275 13.0093 8.26996 11.5915C7.49518 10.6043 6.98217 9.50864 6.7452 8.33508C6.63348 7.78163 5.77517 7.95487 5.88701 8.50838C6.15124 9.81712 6.72127 11.0363 7.58127 12.1321C9.13825 14.1159 11.0499 14.8753 12.3793 15.163C13.0418 15.3064 13.7245 15.3744 14.4024 15.3523V16.9288V16.955V22.7238C14.2703 22.439 14.1276 22.1694 13.9774 21.9142C14.0368 21.396 14.2527 18.3399 11.4519 16.1325C8.41302 13.7374 5.24869 14.9521 5.11543 15.0051C4.97074 15.0625 4.86737 15.1926 4.84414 15.3466C4.82283 15.4878 4.35705 18.8331 7.43412 21.2583C8.86333 22.3847 10.3568 22.6787 11.5267 22.6787C12.2858 22.6787 12.9084 22.5549 13.2889 22.4544C13.8984 23.5188 14.2587 24.6938 14.367 25.9708C12.1014 26.0091 9.98786 26.2691 8.07717 26.7466C7.52932 26.8835 7.74155 27.7328 8.28945 27.596C10.1414 27.1332 12.1957 26.8817 14.4024 26.8458V27.852C14.4024 28.4166 15.2779 28.4166 15.2779 27.852V26.8433C20.441 26.8946 23.7406 28.1587 25.3815 29.0092H4.47916C4.90461 28.7829 5.4493 28.5265 6.12095 28.2711C6.64872 28.0703 6.33744 27.2518 5.80973 27.4527C4.71935 27.8674 3.94293 28.2882 3.48351 28.5681C2.55078 29.1364 2.55078 29.2735 2.55078 29.447C2.55078 29.6887 2.74672 29.8847 2.98854 29.8847H26.9196C27.585 29.8847 27.3232 29.1859 26.9925 28.9528ZM19.9314 16.796C21.7785 15.519 23.5327 15.94 24.1636 16.161C24.139 16.8371 23.8944 18.6473 22.0678 19.9102C20.4115 21.0554 18.8003 20.7806 18.0662 20.5565C18.9292 19.7489 19.9787 19.0783 21.2104 18.5506C21.7294 18.3282 21.3848 17.5235 20.8657 17.7458C19.7544 18.2219 18.8383 18.7889 18.0821 19.3963C18.3097 18.5839 18.8152 17.5677 19.9314 16.796ZM16.6292 19.1376C16.8253 19.1376 17.0342 19.1306 17.2533 19.1146C17.1092 19.6149 17.0535 20.0548 17.0335 20.3638C16.2045 21.2438 15.649 22.1517 15.2779 22.9561V19.0266C15.5849 19.0795 16.0528 19.1376 16.6292 19.1376ZM16.4145 3.96375C17.1475 1.83744 18.8081 1.13276 19.4478 0.935127C19.8279 1.49529 20.6987 3.09815 19.9739 5.20046C19.4313 6.7746 18.3422 7.55143 17.5711 7.91897C18.1395 6.2389 18.7012 4.64725 19.1087 3.64798C19.322 3.12511 18.5112 2.79445 18.298 3.31738C17.8729 4.3599 17.2936 6.00221 16.7124 7.7214C16.3143 6.95963 15.852 5.59532 16.4145 3.96375ZM7.97613 20.5706C6.85972 19.6908 6.13904 18.5709 5.83407 17.2421C5.68453 16.5905 5.67647 16.0439 5.68937 15.7388C6.43555 15.5297 8.72377 15.0971 10.91 16.8202C11.9954 17.6757 12.6943 18.778 12.9874 20.0962C13.03 20.2879 13.0603 20.4703 13.0817 20.6405C12.7902 20.2891 12.4935 19.9794 12.2078 19.7115C10.6976 18.2944 9.19843 17.701 9.13533 17.6764C8.60914 17.4714 8.29144 18.2874 8.81763 18.4923C8.83146 18.4977 10.2207 19.0476 11.6088 20.3499C12.0522 20.7661 12.4428 21.2071 12.7813 21.6719C11.8114 21.8696 9.8169 22.0214 7.97613 20.5706Z" fill="#060606"/>
</g>
<defs>
<clipPath id="clip0_11249_2321">
<rect width="29.8847" height="29.8847" fill="white"/>
</clipPath>
</defs>
</symbol>

</defs>
</svg>
